<svg id="Layer_1" xmlns="http://www.w3.org/2000/svg" viewBox="0 0 100 70"><style>.st0{fill:#fff}.st1{fill:#565d66}.st2{fill:#edeff0}.st3{fill:none;stroke:#565d66;stroke-miterlimit:10}</style><path class="st0" d="M10.5-2.5h79v11h-79z"/><path class="st1" d="M89-2V8H11V-2h78m1-1H10V9h80V-3z"/><path class="st2" d="M10.5 8.5h79v9h-79z"/><path class="st1" d="M89 9v8H11V9h78m1-1H10v10h80V8z"/><path class="st2" d="M17.5 13.4h-3c-.3 0-.5-.2-.5-.5s.2-.5.5-.5h3c.3 0 .5.2.5.5s-.2.5-.5.5z"/><path class="st1" d="M17.5 12.4h-3c-.3 0-.5.2-.5.5s.2.5.5.5h3c.3 0 .5-.2.5-.5 0-.2-.2-.5-.5-.5z"/><path class="st2" d="M23.5 13.4h-3c-.3 0-.5-.2-.5-.5s.2-.5.5-.5h3c.3 0 .5.2.5.5s-.2.5-.5.5z"/><path class="st1" d="M23.5 12.4h-3c-.3 0-.5.2-.5.5s.2.5.5.5h3c.3 0 .5-.2.5-.5 0-.2-.2-.5-.5-.5z"/><path class="st2" d="M29.5 13.4h-3c-.3 0-.5-.2-.5-.5s.2-.5.5-.5h3c.3 0 .5.2.5.5s-.2.5-.5.5z"/><path class="st1" d="M29.5 12.4h-3c-.3 0-.5.2-.5.5s.2.5.5.5h3c.3 0 .5-.2.5-.5 0-.2-.2-.5-.5-.5z"/><path class="st2" d="M85.1 13.3c-.2 0-.4-.2-.4-.4s.2-.4.4-.4.4.2.4.4-.2.4-.4.4z"/><path class="st1" d="M85.1 12c-.5 0-.9.4-.9.9s.4.9.9.9.9-.4.9-.9-.4-.9-.9-.9z"/><g><path class="st2" d="M81.3 13.3c-.2 0-.4-.2-.4-.4s.2-.4.4-.4.4.2.4.4-.2.4-.4.4z"/><path class="st1" d="M81.3 12c-.5 0-.9.4-.9.9s.4.9.9.9.9-.4.9-.9-.4-.9-.9-.9z"/></g><g><circle class="st2" cx="77.5" cy="12.9" r=".4"/><path class="st1" d="M77.5 12c-.5 0-.9.4-.9.9s.4.9.9.9.9-.4.9-.9-.4-.9-.9-.9z"/></g><g><path class="st0" d="M10.5 17.5h79V52h-79z"/><path class="st1" d="M89 18v33.5H11V18h78m1-1H10v35.5h80V17z"/><path class="st3" d="M36.5 18v33.5"/><g><path class="st3" d="M63.5 18v33.5"/></g></g><g><path class="st2" d="M13 59.5c-1.4 0-2.5-1.1-2.5-2.5v-5.5h79V57c0 1.4-1.1 2.5-2.5 2.5H13z"/><path class="st1" d="M89 52v5c0 1.1-.9 2-2 2H13c-1.1 0-2-.9-2-2v-5h78m1-1H10v6c0 1.7 1.3 3 3 3h74c1.7 0 3-1.3 3-3v-6z"/></g><g><path class="st2" d="M57 56H43c-.3 0-.5-.2-.5-.5s.2-.5.5-.5h14c.3 0 .5.2.5.5s-.2.5-.5.5z"/><path class="st1" d="M57 55H43c-.3 0-.5.2-.5.5s.2.5.5.5h14c.3 0 .5-.2.5-.5s-.2-.5-.5-.5z"/></g></svg>