<svg viewBox="0 0 100 70"><path d="M45.1 24.2c-.9 0-1.7.5-2.1 1.4l-2.8 6.6h-1.5c-.4 0-.7.2-.9.4-.2.3-.3.6-.2 1l2.9 10.5c.3 1 1.2 1.7 2.2 1.7h14.7c1 0 1.9-.7 2.2-1.7l2.9-10.5c.1-.3 0-.7-.2-1-.2-.3-.6-.4-.9-.4h-1.5L57 25.6c-.4-.8-1.2-1.4-2.1-1.4h-9.8zm0 2.3H55l2.4 5.7H42.6l2.5-5.7zm.4 9.1c.6 0 1.1.5 1.1 1.1v4.5c0 .6-.5 1.1-1.1 1.1-.6 0-1.1-.5-1.1-1.1v-4.5c-.1-.6.4-1.1 1.1-1.1zm4.5 0c.6 0 1.1.5 1.1 1.1v4.5c0 .6-.5 1.1-1.1 1.1-.6 0-1.1-.5-1.1-1.1v-4.5c0-.6.5-1.1 1.1-1.1zm4.5 0c.6 0 1.1.5 1.1 1.1v4.5c0 .6-.5 1.1-1.1 1.1-.6 0-1.1-.5-1.1-1.1v-4.5c0-.6.5-1.1 1.1-1.1z"/></svg>