<svg id="Layer_1" xmlns="http://www.w3.org/2000/svg" viewBox="0 0 100 70"><style>.st1{fill:#565d66}</style><path d="M13 72.5c-1.4 0-2.5-1.1-2.5-2.5V0c0-1.4 1.1-2.5 2.5-2.5h74c1.4 0 2.5 1.1 2.5 2.5v70c0 1.4-1.1 2.5-2.5 2.5H13z" fill="#fff"/><path class="st1" d="M87-2c1.1 0 2 .9 2 2v70c0 1.1-.9 2-2 2H13c-1.1 0-2-.9-2-2V0c0-1.1.9-2 2-2h74m0-1H13c-1.7 0-3 1.3-3 3v70c0 1.7 1.3 3 3 3h74c1.6 0 3-1.3 3-3V0c0-1.7-1.4-3-3-3z"/><g><path fill="#edeff0" d="M10.5 18h79v34h-79z"/><path class="st1" d="M89 18.5v33H11v-33h78m1-1H10v35h80v-35z"/></g></svg>