<svg id="Layer_1" xmlns="http://www.w3.org/2000/svg" viewBox="0 0 100 70"><style>.st0{fill:#fff}.st4{fill:#4f5459}</style><path class="st0" d="M13 73.5c-1.4 0-2.5-1.1-2.5-2.5V13c0-1.4 1.1-2.5 2.5-2.5h74c1.4 0 2.5 1.1 2.5 2.5v58c0 1.4-1.1 2.5-2.5 2.5H13z"/><path fill="#edeff0" d="M11 15h78v14H11z"/><path d="M89.5 15h-79v-2c0-1.4 1.1-2.5 2.5-2.5h74c1.4 0 2.5 1.1 2.5 2.5v2z" fill="#6e747a"/><path d="M87 11c1.1 0 2 .9 2 2v58c0 1.1-.9 2-2 2H13c-1.1 0-2-.9-2-2V13c0-1.1.9-2 2-2h74m0-1H13c-1.7 0-3 1.3-3 3v58c0 1.7 1.3 3 3 3h74c1.6 0 3-1.3 3-3V13c0-1.7-1.4-3-3-3z" fill="#565d66"/><path class="st0" d="M25.5 13.4h-3c-.3 0-.5-.2-.5-.5s.2-.5.5-.5h3c.3 0 .5.2.5.5s-.2.5-.5.5zM31.5 13.4h-3c-.3 0-.5-.2-.5-.5s.2-.5.5-.5h3c.3 0 .5.2.5.5s-.2.5-.5.5zM37.5 13.4h-3c-.3 0-.5-.2-.5-.5s.2-.5.5-.5h3c.3 0 .5.2.5.5s-.2.5-.5.5z"/><circle class="st0" cx="77.1" cy="12.9" r=".9"/><circle class="st0" cx="73.3" cy="12.9" r=".9"/><circle class="st0" cx="69.5" cy="12.9" r=".9"/><path class="st4" d="M77.5 22.5h-4c-.3 0-.5-.2-.5-.5s.2-.5.5-.5h4c.3 0 .5.2.5.5s-.2.5-.5.5zM70.5 22.5h-4c-.3 0-.5-.2-.5-.5s.2-.5.5-.5h4c.3 0 .5.2.5.5s-.2.5-.5.5zM63.5 22.5h-4c-.3 0-.5-.2-.5-.5s.2-.5.5-.5h4c.3 0 .5.2.5.5s-.2.5-.5.5zM22.4 20.5c.5-.9 1.4-1.4 2.4-1.4.7 0 1.3.3 1.8.7-.1 0-.3 0-.4.1-.4.2-.5.8 0 1.1.3.2.4.6.4.9s-.7 1.5-.7 1.5l-.6-2.2V21c0-.1 0-.1.1-.2l.1-.1h.3v-.2H24v.2h.1c.1 0 .1.1.2.1.1.1.1.3.2.5l.2.8-.5 1.2-.6-2.3s0-.2.1-.2l.1-.1v-.2h-1.4zm.3.4s-.1-.2-.3-.2h-.1c-.1.3-.2.7-.2 1.1 0 1.1.7 2.1 1.7 2.5l-1.1-3.4zm4.5-.4c.1.2 0 .5-.1.9-.3.9-.9 2.4-1.2 3 1-.4 1.6-1.4 1.6-2.5.1-.5-.1-1-.3-1.4m-2.3 2.3l-.7 1.7c.2 0 .4.1.6.1s.5 0 .7-.1l-.6-1.7z"/></svg>