<svg id="Layer_1" xmlns="http://www.w3.org/2000/svg" viewBox="0 0 100 70"><style>.st0{fill:#fff}.st3{fill:#e6e7e8}</style><path class="st0" d="M13 73.5c-1.4 0-2.5-1.1-2.5-2.5V13c0-1.4 1.1-2.5 2.5-2.5h74c1.4 0 2.5 1.1 2.5 2.5v58c0 1.4-1.1 2.5-2.5 2.5H13z"/><path d="M89 36H11V13c0-1.1.9-2 2-2h74c1.1 0 2 .9 2 2v23z" fill="#c3c7ca"/><path d="M87 11c1.1 0 2 .9 2 2v58c0 1.1-.9 2-2 2H13c-1.1 0-2-.9-2-2V13c0-1.1.9-2 2-2h74m0-1H13c-1.7 0-3 1.3-3 3v58c0 1.7 1.3 3 3 3h74c1.6 0 3-1.3 3-3V13c0-1.7-1.4-3-3-3z" fill="#565d66"/><path class="st3" d="M77.5 41h-55c-.3 0-.5-.2-.5-.5s.2-.5.5-.5h55c.3 0 .5.2.5.5s-.2.5-.5.5zM77.5 44h-55c-.3 0-.5-.2-.5-.5s.2-.5.5-.5h55c.3 0 .5.2.5.5s-.2.5-.5.5zM77.5 47h-55c-.3 0-.5-.2-.5-.5s.2-.5.5-.5h55c.3 0 .5.2.5.5s-.2.5-.5.5zM77.5 71h-55c-.3 0-.5-.2-.5-.5v-21c0-.3.2-.5.5-.5h55c.3 0 .5.2.5.5v21c0 .3-.2.5-.5.5z"/><path class="st0" d="M60.5 20.1h-21c-.5 0-1-.4-1-1 0-.5.4-1 1-1h20.9c.5 0 1 .5 1 1 .1.5-.4 1-.9 1zM53.2 24.3H32.3c-.6 0-1-.4-1-1 0-.5.4-1 1-1h20.9c.5 0 1 .5 1 1s-.4 1-1 1zM67.7 24.3H57.2c-.6 0-1-.4-1-1 0-.5.4-1 1-1h10.5c.6 0 1 .5 1 1s-.4 1-1 1z"/><circle class="st0" cx="38" cy="30.4" r="1"/><path class="st0" d="M44.5 30.9h-4c-.3 0-.5-.2-.5-.5s.2-.5.5-.5h4c.3 0 .5.2.5.5s-.2.5-.5.5zM50.5 30.9h-4c-.3 0-.5-.2-.5-.5s.2-.5.5-.5h4c.3 0 .5.2.5.5s-.2.5-.5.5zM56.5 30.9h-4c-.3 0-.5-.2-.5-.5s.2-.5.5-.5h4c.3 0 .5.2.5.5s-.2.5-.5.5zM62.5 30.9h-4c-.3 0-.5-.2-.5-.5s.2-.5.5-.5h4c.3 0 .5.2.5.5s-.2.5-.5.5z"/></svg>