<svg id="Layer_1" xmlns="http://www.w3.org/2000/svg" viewBox="0 0 100 70">
<path d="M59.3,35c0,1.2-0.6,1.9-1.5,1.9c-0.9,0-1.5-0.7-1.5-1.9c0-1.1,0.6-1.9,1.5-1.9C58.7,33.1,59.3,33.8,59.3,35z M35.8,35.3h-1v1.6h1c0.6,0,1-0.3,1-0.8S36.4,35.3,35.8,35.3zM36.6,33.8c0-0.5-0.3-0.7-0.9-0.7h-1v1.5h0.8C36.2,34.5,36.6,34.2,36.6,33.8zM80,26.5v17c0,2.2-1.8,4-4,4H24c-2.2,0-4-1.8-4-4v-17c0-2.2,1.8-4,4-4h52C78.2,22.5,80,24.3,80,26.5z M38,36.2c0-0.7-0.6-1.3-1.3-1.4c0.6-0.1,1.1-0.6,1.1-1.2c0-0.9-0.7-1.4-1.7-1.4h-2.5v5.6h2.5C37.3,37.8,38,37.2,38,36.2z M43.8,32.2h-1.2v3.5c0,0.7-0.4,1.2-1.2,1.2c-0.8,0-1.2-0.5-1.2-1.2v-3.5H39v3.6c0,1.2,0.9,2.1,2.4,2.1c1.4,0,2.4-0.8,2.4-2.1V32.2z M49.3,32.2h-4.4v1h1.6v4.7h1.2v-4.7h1.6V32.2zM54.5,32.2h-4.4v1h1.6v4.7h1.2v-4.7h1.6V32.2z M60.5,35c0-1.8-1.1-2.9-2.7-2.9c-1.7,0-2.7,1.1-2.7,2.9s1,2.9,2.7,2.9S60.5,36.8,60.5,35z M66.4,32.2h-1.1v3.7l-2.6-3.7h-1v5.6h1.1v-3.7l2.6,3.7h1V32.2z"/></svg>