<svg id="Layer_1" xmlns="http://www.w3.org/2000/svg" viewBox="0 0 100 70"><style>.st3{fill:#4f5459}</style><path d="M70.5 79.3h-41c-2.2 0-4-1.8-4-4V14.5c0-2.2 1.8-4 4-4h41c2.2 0 4 1.8 4 4v60.8c0 2.2-1.8 4-4 4z" fill="#fff"/><path d="M74.5 29.1h-49V14.5c0-2.2 1.8-4 4-4h41c2.2 0 4 1.8 4 4v14.6z" fill="#edeff0"/><path d="M70.5 79.3h-41c-2.2 0-4-1.8-4-4V14.5c0-2.2 1.8-4 4-4h41c2.2 0 4 1.8 4 4v60.8c0 2.2-1.8 4-4 4z" fill="none" stroke="#565d66" stroke-width="2" stroke-miterlimit="10"/><circle class="st3" cx="66.2" cy="20.3" r="1.2"/><circle class="st3" cx="33.8" cy="20.3" r="1.2"/><path class="st3" d="M47.3 18.8c.5-.9 1.5-1.5 2.7-1.5.7 0 1.4.3 2 .8-.2 0-.3 0-.5.1-.4.2-.5.8 0 1.2.3.2.4.7.4 1s-.7 1.7-.7 1.7l-.7-2.4v-.2c0-.1 0-.1.1-.2l.1-.1h.3v-.3h-1.8v.3h.1c.1 0 .1.1.2.1.1.1.1.3.2.6l.3.9-.7 1.2-.6-2.6s0-.2.1-.2l.1-.1v-.3h-1.6zm.4.4s-.1-.2-.3-.2h-.2c-.2.3-.2.8-.2 1.2 0 1.2.8 2.3 1.8 2.7l-1.1-3.7zm4.9-.4c.1.3 0 .6-.1 1-.3.9-1 2.6-1.3 3.3 1-.5 1.8-1.5 1.8-2.7 0-.7-.2-1.2-.4-1.6m-2.5 2.5l-.8 1.9c.2.1.5.1.7.1.3 0 .5 0 .7-.1l-.6-1.9z"/></svg>